<svg xmlns="http://www.w3.org/2000/svg" width="1200" height="700" viewBox="0 0 1200 700">
  <defs>
    <linearGradient id="bg" x1="0" y1="0" x2="1" y2="1">
      <stop offset="0" stop-color="#0a0e27"/>
      <stop offset="1" stop-color="#1a1f3a"/>
    </linearGradient>
    <linearGradient id="accent" x1="0" y1="0" x2="1" y2="0">
      <stop offset="0" stop-color="#4a9eff"/>
      <stop offset="1" stop-color="#2196f3"/>
    </linearGradient>
  </defs>
  <rect width="1200" height="700" fill="url(#bg)"/>
  <rect x="70" y="80" width="1060" height="540" rx="20" fill="#111827" opacity="0.35"/>
  <rect x="70" y="80" width="6" height="540" fill="url(#accent)"/>
  <text x="120" y="200" fill="#e0e0e0" font-size="54" font-family="Inter, system-ui, -apple-system, Segoe UI, Roboto, Arial, sans-serif" font-weight="700">TU KIOSKO</text>
  <text x="120" y="265" fill="#a0a0a0" font-size="26" font-family="Inter, system-ui, -apple-system, Segoe UI, Roboto, Arial, sans-serif">React • TypeScript • Tailwind • Supabase</text>
  <g opacity="0.9" fill="#4a9eff">
    <path d="M260 470h-60c-11 0-20-9-20-20v-90c0-11 9-20 20-20h60c11 0 20 9 20 20v90c0 11-9 20-20 20zm0-18v-94h-62v94h62z"/>
    <path d="M520 470H340c-11 0-20-9-20-20v-90c0-11 9-20 20-20h180c11 0 20 9 20 20v90c0 11-9 20-20 20zm0-18v-94H338v94h182z"/>
    <path d="M720 320h260v-40H720v40zm0 72h260v-40H720v40zm0 72h260v-40H720v40z"/>
  </g>
</svg>
