<svg xmlns="http://www.w3.org/2000/svg" width="1200" height="700" viewBox="0 0 1200 700">
  <defs>
    <linearGradient id="bg" x1="0" y1="0" x2="1" y2="1">
      <stop offset="0" stop-color="#0a0e27"/>
      <stop offset="1" stop-color="#1a1f3a"/>
    </linearGradient>
    <linearGradient id="accent" x1="0" y1="0" x2="1" y2="0">
      <stop offset="0" stop-color="#4a9eff"/>
      <stop offset="1" stop-color="#2196f3"/>
    </linearGradient>
  </defs>
  <rect width="1200" height="700" fill="url(#bg)"/>
  <rect x="70" y="80" width="1060" height="540" rx="20" fill="#111827" opacity="0.35"/>
  <rect x="70" y="80" width="6" height="540" fill="url(#accent)"/>
  <text x="120" y="200" fill="#e0e0e0" font-size="54" font-family="Inter, system-ui, -apple-system, Segoe UI, Roboto, Arial, sans-serif" font-weight="700">Sistema Integral de Gestión de Flota</text>
  <text x="120" y="265" fill="#a0a0a0" font-size="26" font-family="Inter, system-ui, -apple-system, Segoe UI, Roboto, Arial, sans-serif">Angular • Ionic • Node.js • MySQL</text>
  <g opacity="0.9" fill="#4a9eff">
    <path d="M210 430h-55c-8.8 0-16-7.2-16-16v-62c0-8.8 7.2-16 16-16h55c8.8 0 16 7.2 16 16v62c0 8.8-7.2 16-16 16zm0-16v-62h-55v62h55z"/>
    <path d="M420 430H275c-8.8 0-16-7.2-16-16v-62c0-8.8 7.2-16 16-16h145c8.8 0 16 7.2 16 16v62c0 8.8-7.2 16-16 16zm0-16v-62H275v62h145z"/>
    <path d="M645 430H485c-8.8 0-16-7.2-16-16v-62c0-8.8 7.2-16 16-16h160c8.8 0 16 7.2 16 16v62c0 8.8-7.2 16-16 16zm0-16v-62H485v62h160z"/>
  </g>
</svg>
